<svg width="641" height="666" viewBox="0 0 641 666" fill="none" xmlns="http://www.w3.org/2000/svg">
<ellipse cx="321.5" cy="339.5" rx="303.5" ry="308.5" fill="white"/>
<path d="M46.2827 618.375L80.0693 518.267L149.871 597.581L46.2827 618.375Z" fill="white"/>
<path d="M168.326 608.06C212.375 633.463 263.483 648 317.987 648C483.673 648 618 513.687 618 348C618 182.315 483.687 48 318 48C152.315 48 18 182.315 18 348C18 402.503 32.5347 453.613 57.9397 497.663L58.038 497.833C60.4827 502.07 61.7153 504.21 62.2737 506.23C62.8003 508.133 62.9473 509.847 62.8123 511.82C62.6677 513.937 61.9533 516.133 60.4893 520.527L34.862 597.41L34.8297 597.51C29.4227 613.73 26.719 621.84 28.646 627.247C30.3263 631.957 34.0563 635.677 38.7683 637.357C44.1607 639.28 52.235 636.59 68.385 631.207L68.586 631.13L145.468 605.503C149.846 604.043 152.071 603.303 154.186 603.16C156.158 603.023 157.859 603.203 159.764 603.73C161.789 604.29 163.928 605.523 168.188 607.98L168.326 608.06Z" stroke="#8F9192" stroke-width="35.67" stroke-linecap="round" stroke-linejoin="round"/>
<g clip-path="url(#clip0_5_3)">
<path d="M133.499 383.444C132.397 388.109 131.804 392.966 131.804 397.823C131.804 456.54 214.718 504.329 316.602 504.329C418.485 504.329 501.399 456.527 501.399 397.823C501.399 393.158 500.89 388.569 499.859 384.045L499.563 383.508C499.195 382.575 499.054 381.642 499.054 380.709C493.39 360.668 478.008 342.493 455.789 327.782C454.984 327.513 454.165 327.117 453.43 326.644C452.922 326.248 452.541 325.916 452.173 325.507C418.401 304.469 370.149 291.291 316.658 291.291C263.619 291.291 215.791 304.2 182.033 324.906C181.807 325.174 181.524 325.443 181.143 325.711C180.408 326.312 179.518 326.772 178.643 326.976C155.986 341.688 140.237 359.99 134.361 380.236C134.361 381.233 134.064 382.166 133.626 383.163L133.499 383.444ZM317.562 476.108C283.789 476.108 260.031 469.513 244.804 455.735C241.57 452.744 241.57 447.951 244.804 444.947C248.109 442.148 253.491 442.148 256.796 444.947C268.647 455.671 288.507 461.052 317.562 461.052C346.617 461.052 366.336 455.926 378.187 445.203C381.28 442.404 386.647 442.404 390.037 445.203C393.131 448.27 393.131 453.127 390.037 456.182C374.811 469.96 351.194 476.619 317.35 476.619L317.562 476.108ZM249.649 347.107C232.431 347.107 218.094 360.156 218.094 375.66C218.094 391.164 232.445 403.753 249.649 403.753C266.867 403.753 280.766 391.177 280.766 375.66C280.766 360.144 266.783 347.107 249.649 347.107ZM385.899 347.107C368.68 347.107 354.259 360.156 354.259 375.66C354.259 391.164 368.68 403.753 385.899 403.753C403.117 403.753 416.946 391.177 416.946 375.66C416.946 360.144 403.047 347.107 385.899 347.107ZM471.539 319.87C491.031 334.121 505.453 350.954 512.741 369.397C521.202 363.671 526.273 354.686 526.273 344.704C526.273 327.59 510.976 313.748 492.062 313.748C484.562 313.748 477.429 315.946 471.539 319.934V319.87ZM143.062 313.812C124.148 313.812 108.851 327.654 108.851 344.768C108.851 354.021 113.343 362.611 120.984 368.464C128.485 350.021 143.062 333.444 162.625 319.397C156.961 315.869 150.195 313.799 143.062 313.799V313.812ZM316.672 519.654C205.438 519.654 114.953 465.001 114.953 397.9C114.953 393.234 115.391 388.646 116.21 384.121C101.28 375.737 92 360.949 92 344.717C92 319.218 115.094 298.449 143.344 298.449C156 298.449 167.837 302.641 177.188 310.092C212.133 289.783 259.212 277.002 311.079 276.145L345.219 182.011L352.875 183.609C352.875 183.609 353.171 183.609 353.171 183.673L432.695 200.583C439.164 186.996 454.108 177.41 471.539 177.41C494.718 177.41 513.617 194.524 513.617 215.486C513.617 236.447 494.704 253.561 471.539 253.561C448.444 253.561 429.602 236.447 429.602 215.549L357.07 199.969L329.413 276.26C379.359 278.063 424.46 290.844 458.304 310.744C467.64 302.82 479.858 298.5 492.811 298.5C521.061 298.5 544.014 319.141 544.014 344.704C544.014 361.486 533.858 376.785 518.038 384.978C518.632 389.311 519.211 393.426 519.211 397.759C518.914 464.861 428.655 519.449 317.265 519.449L316.672 519.654ZM470.649 192.658C456.75 192.658 445.422 202.845 445.422 215.422C445.422 227.998 456.75 238.249 470.649 238.249C484.477 238.249 495.735 228.062 495.735 215.549C495.735 203.037 484.477 192.85 470.352 192.85L470.649 192.658Z" fill="black"/>
<ellipse cx="249" cy="376.5" rx="32" ry="30.5" fill="#FF4B08"/>
<ellipse cx="386" cy="376.5" rx="32" ry="30.5" fill="#FF4B08"/>
</g>
<circle cx="552.5" cy="88.5" r="88.5" fill="#FF4B08"/>
<defs>
<clipPath id="clip0_5_3">
<rect width="452" height="409" fill="white" transform="translate(92 144)"/>
</clipPath>
</defs>
</svg>
