<svg width="714" height="712" viewBox="0 0 714 712" fill="none" xmlns="http://www.w3.org/2000/svg">
<path d="M650.585 674.437L650.594 674.447L650.603 674.457C652.594 676.573 655.315 677.769 658.157 677.806C660.989 677.843 663.745 676.7 665.77 674.635L699.096 640.658L699.102 640.651C701.133 638.592 702.267 635.759 702.23 632.81L702.23 632.798C702.206 629.858 701.001 627.048 698.929 625.035L698.918 625.024L698.907 625.013L436.909 365.254L395.178 407.802L650.585 674.437Z" fill="white" stroke="black" stroke-width="6"/>
<g clip-path="url(#clip0_5_3)">
<path d="M464.928 516.925C462.339 519.564 458.799 521.043 455.134 520.995C451.469 520.947 447.976 519.404 445.434 516.702L188.016 247.966L233.895 201.189L498.035 463.072C500.686 465.648 502.215 469.226 502.246 472.962C502.293 476.699 500.858 480.308 498.254 482.948L464.928 516.925Z" fill="white"/>
<path d="M464.928 516.925C462.339 519.564 458.799 521.043 455.134 520.995C451.469 520.947 447.976 519.404 445.434 516.702L188.016 247.966L233.895 201.189L498.035 463.072C500.686 465.648 502.215 469.226 502.246 472.962C502.293 476.699 500.858 480.308 498.254 482.948L464.928 516.925Z" stroke="black"/>
<mask id="path-3-inside-1_5_3" fill="white">
<path d="M18.5518 337.911C5.10914 302.836 -1.47201 208.027 46.3564 159.262C71.7447 133.377 122.052 82.1014 122.052 82.1014C135.26 68.6185 148.36 81.1316 158.123 71.1787C167.886 61.2257 158.123 45.3098 166.918 36.3582L199.135 3.50973C203.72 -1.16503 211.159 -1.16503 215.728 3.50973L260.624 49.2692C265.209 53.944 265.224 61.528 260.624 66.2027L228.406 99.0512C219.626 108.019 204.016 98.0499 194.254 108.003C181.061 121.438 183.306 136.097 191.603 144.54L208.196 161.474L212.92 179.79L167.026 226.567L149.622 221.177C134.979 206.247 118.028 204.132 108.858 213.481C51.2518 273.725 50.0202 319.261 41.2404 341.648C35.6434 355.926 21.7176 351.585 18.5518 337.911ZM108.953 213.385C109.016 213.306 109.047 213.273 108.953 213.385Z"/>
</mask>
<path d="M18.5518 337.911C5.10914 302.836 -1.47201 208.027 46.3564 159.262C71.7447 133.377 122.052 82.1014 122.052 82.1014C135.26 68.6185 148.36 81.1316 158.123 71.1787C167.886 61.2257 158.123 45.3098 166.918 36.3582L199.135 3.50973C203.72 -1.16503 211.159 -1.16503 215.728 3.50973L260.624 49.2692C265.209 53.944 265.224 61.528 260.624 66.2027L228.406 99.0512C219.626 108.019 204.016 98.0499 194.254 108.003C181.061 121.438 183.306 136.097 191.603 144.54L208.196 161.474L212.92 179.79L167.026 226.567L149.622 221.177C134.979 206.247 118.028 204.132 108.858 213.481C51.2518 273.725 50.0202 319.261 41.2404 341.648C35.6434 355.926 21.7176 351.585 18.5518 337.911ZM108.953 213.385C109.016 213.306 109.047 213.273 108.953 213.385Z" fill="white"/>
<path d="M18.5518 337.911L25.0882 335.406C25.2039 335.708 25.2985 336.018 25.3714 336.332L18.5518 337.911ZM122.052 82.1014L127.053 86.9999L127.049 87.0037L122.052 82.1014ZM166.918 36.3582L171.916 41.2597L171.911 41.2643L166.918 36.3582ZM199.135 3.50973L194.138 -1.39175L194.138 -1.39183L199.135 3.50973ZM215.728 3.50973L210.731 8.41212L210.722 8.40256L215.728 3.50973ZM260.624 49.2692L265.621 44.3668L265.622 44.3677L260.624 49.2692ZM260.624 66.2027L255.627 61.3012L255.635 61.293L260.624 66.2027ZM228.406 99.0512L223.404 94.1542L223.409 94.1496L228.406 99.0512ZM194.254 108.003L199.251 112.904L199.248 112.907L194.254 108.003ZM191.603 144.54L196.596 139.634L196.603 139.641L191.603 144.54ZM208.196 161.474L213.196 156.574C214.054 157.451 214.667 158.537 214.974 159.725L208.196 161.474ZM212.92 179.79L219.699 178.041C220.311 180.417 219.636 182.941 217.917 184.692L212.92 179.79ZM167.026 226.567L172.023 231.469C170.187 233.341 167.459 234.029 164.955 233.254L167.026 226.567ZM149.622 221.177L147.551 227.864C146.443 227.52 145.437 226.907 144.625 226.078L149.622 221.177ZM108.858 213.481L103.799 208.643C103.819 208.622 103.84 208.6 103.861 208.579L108.858 213.481ZM41.2404 341.648L34.7233 339.093L34.7237 339.092L41.2404 341.648ZM108.953 213.385L114.318 217.882C111.859 220.816 107.499 221.23 104.531 218.812C101.563 216.393 101.089 212.039 103.466 209.039L108.953 213.385ZM12.0154 340.417C4.84401 321.705 -0.216045 288.154 2.49844 253.179C5.21128 218.224 15.8016 180.418 41.3589 154.361L51.3539 164.164C29.0828 186.871 19.0495 220.852 16.4565 254.262C13.8651 287.651 18.817 319.043 25.0882 335.406L12.0154 340.417ZM41.3589 154.361C54.0534 141.418 72.9777 122.127 88.7281 106.073C96.6033 98.0454 103.685 90.827 108.798 85.6154C111.355 83.0096 113.419 80.9055 114.844 79.4529C115.557 78.7265 116.11 78.1631 116.484 77.7812C116.672 77.5903 116.814 77.4447 116.91 77.3469C116.958 77.298 116.995 77.261 117.019 77.2363C117.031 77.2239 117.04 77.2146 117.046 77.2084C117.049 77.2053 117.052 77.2029 117.053 77.2014C117.054 77.2006 117.055 77.2 117.055 77.1996C117.055 77.1992 117.056 77.199 122.052 82.1014C127.049 87.0037 127.049 87.0039 127.048 87.0043C127.048 87.0047 127.047 87.0053 127.047 87.0061C127.045 87.0076 127.043 87.01 127.04 87.0131C127.034 87.0193 127.025 87.0286 127.012 87.041C126.988 87.0657 126.952 87.1027 126.904 87.1516C126.808 87.2494 126.665 87.3949 126.478 87.5859C126.103 87.9677 125.55 88.5312 124.838 89.2575C123.413 90.7101 121.348 92.8142 118.792 95.4199C113.679 100.631 106.597 107.85 98.7218 115.877C82.9714 131.932 64.0477 151.222 51.3539 164.164L41.3589 154.361ZM117.052 77.2028C121.209 72.9588 125.592 70.5611 130.055 69.3504C134.362 68.182 138.429 68.2172 141.606 68.3199C148.68 68.5488 150.804 68.6432 153.125 66.2769L163.12 76.0805C155.678 83.6671 146.371 82.4814 141.153 82.3126C138.184 82.2166 135.89 82.2735 133.72 82.862C131.707 83.4082 129.499 84.5025 127.053 86.9999L117.052 77.2028ZM153.125 66.2769C155.677 63.6757 156.013 60.2556 155.885 53.5264C155.78 48.0482 155.077 38.4219 161.925 31.4521L171.911 41.2643C169.964 43.2461 169.745 46.0536 169.882 53.2595C169.995 59.2144 170.331 68.7288 163.12 76.0805L153.125 66.2769ZM161.921 31.4567L194.138 -1.39175L204.133 8.4112L171.916 41.2597L161.921 31.4567ZM194.138 -1.39183C201.462 -8.85962 213.414 -8.87231 220.734 -1.3831L210.722 8.40256C208.904 6.54225 205.978 6.52956 204.133 8.41128L194.138 -1.39183ZM220.725 -1.39266L265.621 44.3668L255.627 54.1716L210.731 8.41212L220.725 -1.39266ZM265.622 44.3677C272.867 51.7545 272.904 63.7033 265.614 71.1124L255.635 61.293C257.544 59.3527 257.552 56.1334 255.627 54.1708L265.622 44.3677ZM265.622 71.1043L233.404 103.953L223.409 94.1496L255.627 61.3012L265.622 71.1043ZM233.408 103.948C226.51 110.994 216.918 110.266 211.555 110.156C204.971 110.022 201.747 110.36 199.251 112.904L189.257 103.101C196.523 95.6924 205.985 96.0393 211.841 96.1591C218.92 96.3038 221.523 96.0759 223.404 94.1542L233.408 103.948ZM199.248 112.907C193.723 118.535 191.904 123.883 191.87 128.199C191.835 132.591 193.636 136.622 196.596 139.634L186.61 149.446C181.273 144.015 177.804 136.495 177.87 128.088C177.937 119.605 181.592 110.906 189.259 103.098L199.248 112.907ZM196.603 139.641L213.196 156.574L203.196 166.373L186.603 149.439L196.603 139.641ZM214.974 159.725L219.699 178.041L206.142 181.538L201.418 163.222L214.974 159.725ZM217.917 184.692L172.023 231.469L162.03 221.665L207.924 174.888L217.917 184.692ZM164.955 233.254L147.551 227.864L151.693 214.49L169.097 219.88L164.955 233.254ZM144.625 226.078C138.087 219.412 131.46 216.051 126.015 215.125C120.669 214.217 116.576 215.609 113.855 218.383L103.861 208.579C110.311 202.004 119.278 199.78 128.361 201.323C137.344 202.85 146.515 208.012 154.62 216.275L144.625 226.078ZM113.917 218.319C85.7525 247.773 71.5281 273.447 63.2468 294.34C59.0894 304.829 56.3931 314.204 54.1681 322.469C52.0002 330.522 50.1371 338.135 47.7572 344.204L34.7237 339.092C36.7337 333.967 38.3169 327.494 40.6495 318.83C42.925 310.377 45.7832 300.405 50.2319 289.181C59.1629 266.649 74.3575 239.432 103.799 208.643L113.917 218.319ZM47.7576 344.203C45.9669 348.771 43.248 352.513 39.5842 354.886C35.839 357.311 31.5556 357.997 27.4764 357.097C19.5216 355.342 13.7315 348.125 11.7322 339.49L25.3714 336.332C26.5379 341.371 29.2937 343.161 30.4924 343.426C30.99 343.535 31.4354 343.484 31.9743 343.135C32.5947 342.733 33.7154 341.664 34.7233 339.093L47.7576 344.203ZM103.588 208.889C103.601 208.873 103.592 208.884 103.571 208.91C103.564 208.918 103.553 208.932 103.539 208.949C103.529 208.962 103.499 208.999 103.462 209.048C103.444 209.07 103.405 209.122 103.356 209.188C103.332 209.222 103.29 209.281 103.238 209.356C103.205 209.405 103.084 209.58 102.948 209.816C102.89 209.917 102.731 210.196 102.571 210.573C102.493 210.757 102.346 211.12 102.226 211.598C102.142 211.927 101.86 213.079 102.121 214.543C102.463 216.456 103.852 219.033 106.922 219.994C109.124 220.682 110.913 220.065 111.338 219.915C112.433 219.529 113.169 218.946 113.22 218.907C113.6 218.621 113.868 218.356 113.896 218.327C113.985 218.241 114.053 218.17 114.086 218.135C114.199 218.016 114.285 217.917 114.289 217.913C114.315 217.883 114.335 217.859 114.345 217.847C114.368 217.82 114.385 217.8 114.394 217.789C114.413 217.765 114.428 217.747 114.44 217.732L103.466 209.039C103.509 208.984 103.552 208.932 103.591 208.883C103.611 208.86 103.636 208.829 103.665 208.795C103.679 208.779 103.702 208.752 103.73 208.72C103.736 208.713 103.823 208.612 103.937 208.492C103.971 208.457 104.039 208.386 104.128 208.299C104.157 208.271 104.424 208.005 104.804 207.719C104.855 207.68 105.591 207.097 106.686 206.711C107.112 206.561 108.901 205.944 111.102 206.632C114.172 207.593 115.562 210.17 115.903 212.083C116.165 213.547 115.882 214.699 115.799 215.029C115.678 215.506 115.532 215.869 115.453 216.053C115.293 216.43 115.134 216.709 115.076 216.811C114.94 217.046 114.819 217.222 114.786 217.271C114.734 217.346 114.691 217.406 114.667 217.439C114.618 217.507 114.578 217.559 114.56 217.582C114.496 217.666 114.441 217.733 114.432 217.743C114.392 217.793 114.352 217.841 114.318 217.882L103.588 208.889Z" fill="black" mask="url(#path-3-inside-1_5_3)"/>
</g>
<ellipse cx="394.5" cy="385.5" rx="303.5" ry="308.5" fill="white"/>
<path d="M119.283 664.375L153.069 564.267L222.871 643.581L119.283 664.375Z" fill="white"/>
<path d="M241.326 654.06C285.375 679.463 336.483 694 390.987 694C556.673 694 691 559.687 691 394C691 228.315 556.687 94 391 94C225.315 94 91 228.315 91 394C91 448.503 105.535 499.613 130.94 543.663L131.038 543.833C133.483 548.07 134.715 550.21 135.274 552.23C135.8 554.133 135.947 555.847 135.812 557.82C135.668 559.937 134.953 562.133 133.489 566.527L107.862 643.41L107.83 643.51C102.423 659.73 99.719 667.84 101.646 673.247C103.326 677.957 107.056 681.677 111.768 683.357C117.161 685.28 125.235 682.59 141.385 677.207L141.586 677.13L218.468 651.503C222.846 650.043 225.071 649.303 227.186 649.16C229.158 649.023 230.859 649.203 232.764 649.73C234.789 650.29 236.928 651.523 241.188 653.98L241.326 654.06Z" stroke="#8F9192" stroke-width="35.67" stroke-linecap="round" stroke-linejoin="round"/>
<g clip-path="url(#clip1_5_3)">
<path d="M206.499 429.444C205.397 434.109 204.804 438.966 204.804 443.823C204.804 502.54 287.718 550.329 389.602 550.329C491.485 550.329 574.399 502.527 574.399 443.823C574.399 439.158 573.89 434.569 572.859 430.045L572.563 429.508C572.195 428.575 572.054 427.642 572.054 426.709C566.39 406.668 551.008 388.493 528.789 373.782C527.984 373.513 527.165 373.117 526.43 372.644C525.922 372.248 525.541 371.916 525.173 371.507C491.401 350.469 443.149 337.291 389.658 337.291C336.619 337.291 288.791 350.2 255.033 370.906C254.807 371.174 254.524 371.443 254.143 371.711C253.408 372.312 252.518 372.772 251.643 372.976C228.986 387.688 213.237 405.99 207.361 426.236C207.361 427.233 207.064 428.166 206.626 429.163L206.499 429.444ZM390.562 522.108C356.789 522.108 333.031 515.513 317.804 501.735C314.57 498.744 314.57 493.951 317.804 490.947C321.109 488.148 326.491 488.148 329.796 490.947C341.647 501.671 361.507 507.052 390.562 507.052C419.617 507.052 439.336 501.926 451.187 491.203C454.28 488.404 459.647 488.404 463.037 491.203C466.131 494.27 466.131 499.127 463.037 502.182C447.811 515.96 424.194 522.619 390.35 522.619L390.562 522.108ZM322.649 393.107C305.431 393.107 291.094 406.156 291.094 421.66C291.094 437.164 305.445 449.753 322.649 449.753C339.867 449.753 353.766 437.177 353.766 421.66C353.766 406.144 339.783 393.107 322.649 393.107ZM458.899 393.107C441.68 393.107 427.259 406.156 427.259 421.66C427.259 437.164 441.68 449.753 458.899 449.753C476.117 449.753 489.946 437.177 489.946 421.66C489.946 406.144 476.047 393.107 458.899 393.107ZM544.539 365.87C564.031 380.121 578.453 396.954 585.741 415.397C594.202 409.671 599.273 400.686 599.273 390.704C599.273 373.59 583.976 359.748 565.062 359.748C557.562 359.748 550.429 361.946 544.539 365.934V365.87ZM216.062 359.812C197.148 359.812 181.851 373.654 181.851 390.768C181.851 400.021 186.343 408.611 193.984 414.464C201.485 396.021 216.062 379.444 235.625 365.397C229.961 361.869 223.195 359.799 216.062 359.799V359.812ZM389.672 565.654C278.438 565.654 187.953 511.001 187.953 443.9C187.953 439.234 188.391 434.646 189.21 430.121C174.28 421.737 165 406.949 165 390.717C165 365.218 188.094 344.449 216.344 344.449C229 344.449 240.837 348.641 250.188 356.092C285.133 335.783 332.212 323.002 384.079 322.145L418.219 228.011L425.875 229.609C425.875 229.609 426.171 229.609 426.171 229.673L505.695 246.583C512.164 232.996 527.108 223.41 544.539 223.41C567.718 223.41 586.617 240.524 586.617 261.486C586.617 282.447 567.704 299.561 544.539 299.561C521.444 299.561 502.602 282.447 502.602 261.549L430.07 245.969L402.413 322.26C452.359 324.063 497.46 336.844 531.304 356.744C540.64 348.82 552.858 344.5 565.811 344.5C594.061 344.5 617.014 365.141 617.014 390.704C617.014 407.486 606.858 422.785 591.038 430.978C591.632 435.311 592.211 439.426 592.211 443.759C591.914 510.861 501.655 565.449 390.265 565.449L389.672 565.654ZM543.649 238.658C529.75 238.658 518.422 248.845 518.422 261.422C518.422 273.998 529.75 284.249 543.649 284.249C557.477 284.249 568.735 274.062 568.735 261.549C568.735 249.037 557.477 238.85 543.352 238.85L543.649 238.658Z" fill="black"/>
<ellipse cx="322" cy="422.5" rx="32" ry="30.5" fill="#FF4B08"/>
<ellipse cx="459" cy="422.5" rx="32" ry="30.5" fill="#FF4B08"/>
</g>
<circle cx="625.5" cy="134.5" r="88.5" fill="#FF4B08"/>
<defs>
<clipPath id="clip0_5_3">
<rect width="511" height="521" fill="white" transform="matrix(-1 0 0 1 511 0)"/>
</clipPath>
<clipPath id="clip1_5_3">
<rect width="452" height="409" fill="white" transform="translate(165 190)"/>
</clipPath>
</defs>
</svg>
